# xmcd
#
# Track frame offsets:
#	150
#	17614
#	32129
#	56768
#	82929
#	100728
#	118067
#	140110
#	152280
#	180723
#	198563
#	252080
#	270334
#	302896
#	324876
#
# Disc length: 4571 seconds
#
# Revision: 2766566629
# Processed by: cddbd v1.5.2PL0 Copyright (c) Steve Scherf et al.
# Submitted via: EZCDAudioConverter 8.2.2.1
#
DISCID=c011d90f
DTITLE=Marvin Gaye - Gold [CD2] (Europe)
DYEAR=2005
DGENRE=Rhythm and Blues, Soul, Funk
TTITLE0=What's Going On
TTITLE1=Mercy Mercy Me (The Ecology)
TTITLE2=Inner City Blues (Make Me Wanna Holler)
TTITLE3=You're The Man (Pts. I and II)
TTITLE4=Where Are We Going?
TTITLE5=Trouble Man
TTITLE6=Let's Get It On
TTITLE7=Come Get To This
TTITLE8=Distant Lover - Live
TTITLE9=I Want You
TTITLE10=Got To Give It Up
TTITLE11=Anger
TTITLE12=Ego Tripping Out
TTITLE13=Praise
TTITLE14=Sexual Healing
EXTD=
EXTT0=
EXTT1=
EXTT2=
EXTT3=
EXTT4=
EXTT5=
EXTT6=
EXTT7=
EXTT8=
EXTT9=
EXTT10=
EXTT11=
EXTT12=
EXTT13=
EXTT14=
PLAYORDER=
